<svg xmlns="http://www.w3.org/2000/svg" fill="none" viewBox="0 0 365 329">
  <path fill="currentColor" fill-opacity=".75" d="M167.757 35.329C125.154 9.196 56.132 2.015 21.407.034 9.732-.626 0 8.282 0 19.526v214.501c0 10.311 8.32 18.907 19.023 19.466 20.818 1.096 55.767 4.125 89.735 12.507V154.018c0-12.204 9.91-22.105 22.123-22.105h41.483V43.576c0-3.359-1.66-6.438-4.607-8.247zM343.6.034C308.874 2.01 239.852 9.196 197.243 35.33c-2.94 1.803-4.607 5.009-4.607 8.361v88.223h41.483c12.214 0 22.123 9.901 22.123 22.105v111.976c33.969-8.383 68.918-11.411 89.735-12.507 10.703-.565 19.023-9.162 19.023-19.466V19.526c.006-11.244-9.727-20.152-21.4-19.492z"/>
  <path fill="currentColor" fill-rule="evenodd" d="M142.95 148c-9.358 0-16.95 7.601-16.95 16.969v147.062c0 9.368 7.592 16.969 16.95 16.969h79.1c9.358 0 16.95-7.601 16.95-16.969V164.969c0-9.368-7.592-16.969-16.95-16.969h-79.1zm28.25 158.375c0 6.257 5.05 11.312 11.3 11.312 6.25 0 11.3-5.055 11.3-11.312s-5.05-11.313-11.3-11.313c-6.25 0-11.3 5.056-11.3 11.313z" clip-rule="evenodd"/>
</svg>
